<svg xmlns="http://www.w3.org/2000/svg" width="65" height="64" viewBox="0 0 65 64" fill="none">
  <path d="M57.2213 29.4667L35.488 7.73342C34.8213 7.06675 33.888 6.66675 32.9547 6.66675C32.0213 6.66675 31.088 7.06675 30.4213 7.73342L25.7547 12.4001L31.2213 17.8667C31.7547 17.6001 32.288 17.4667 32.9547 17.4667C35.2213 17.4667 36.9547 19.2001 36.9547 21.4667C36.9547 22.1334 36.8213 22.6667 36.5547 23.2001L41.888 28.5334C42.4213 28.2667 42.9547 28.1334 43.6213 28.1334C45.888 28.1334 47.6213 29.8667 47.6213 32.1334C47.6213 34.4001 45.888 36.1334 43.6213 36.1334C41.3547 36.1334 39.6213 34.4001 39.6213 32.1334C39.6213 31.4667 39.7547 30.9334 40.0213 30.4001L34.688 25.0667C34.5547 25.0667 34.4213 25.2001 34.288 25.2001V39.0667C35.888 39.6001 36.9547 41.0667 36.9547 42.8001C36.9547 45.0667 35.2213 46.8001 32.9547 46.8001C30.688 46.8001 28.9547 45.0667 28.9547 42.8001C28.9547 41.0667 30.0213 39.6001 31.6213 39.0667V25.0667C30.0213 24.5334 28.9547 23.0667 28.9547 21.3334C28.9547 20.6667 29.088 20.1334 29.3547 19.6001L23.888 14.1334L8.688 29.4667C8.02134 30.1334 7.62134 31.0667 7.62134 32.0001C7.62134 32.9334 8.02134 33.8667 8.688 34.5334L30.4213 56.2668C31.088 56.9334 32.0213 57.3334 32.9547 57.3334C33.888 57.3334 34.8213 56.9334 35.488 56.2668L57.2213 34.5334C57.888 33.8667 58.288 32.9334 58.288 32.0001C58.288 31.0667 57.888 30.1334 57.2213 29.4667Z" fill="#F4511E"/>
</svg>