<svg xmlns="http://www.w3.org/2000/svg" width="65" height="64" viewBox="0 0 65 64" fill="none">
  <path d="M53.2468 34.6079C51.1962 34.6186 49.4202 35.1106 47.9322 35.8452C47.3882 34.7586 46.8362 33.8026 46.7442 33.0919C46.6362 32.2626 46.5108 31.7666 46.6415 30.7786C46.7722 29.7906 47.3442 28.3906 47.3362 28.2852C47.3282 28.1799 47.2082 27.6772 46.0255 27.6679C44.8428 27.6599 43.8308 27.8959 43.7122 28.2079C43.5935 28.5199 43.3655 29.2226 43.2242 29.9559C43.0175 31.0279 40.8628 34.8532 39.6402 36.8532C39.2402 36.0719 38.9002 35.3839 38.8295 34.8399C38.7215 34.0106 38.5962 33.5146 38.7268 32.5266C38.8575 31.5386 39.4295 30.1386 39.4215 30.0332C39.4135 29.9279 39.2935 29.4252 38.1108 29.4159C36.9282 29.4079 35.9162 29.6439 35.7975 29.9559C35.6788 30.2679 35.5508 30.9972 35.3095 31.7039C35.0668 32.4092 32.2042 38.7892 31.4535 40.4439C31.0708 41.2866 30.7388 41.9639 30.5042 42.4252L30.5028 42.4226C30.5028 42.4226 30.4882 42.4532 30.4642 42.5052C30.2628 42.8986 30.1442 43.1159 30.1442 43.1159C30.1442 43.1159 30.1455 43.1186 30.1482 43.1239C29.9882 43.4132 29.8175 43.6812 29.7335 43.6812C29.6748 43.6812 29.5562 42.9119 29.7588 41.8559C30.1855 39.6426 31.2082 36.1919 31.1988 36.0719C31.1935 36.0106 31.3895 35.4092 30.5308 35.0946C29.6962 34.7892 29.3988 35.2986 29.3228 35.2999C29.2495 35.3012 29.1948 35.4799 29.1948 35.4799C29.1948 35.4799 30.1242 31.5986 27.4215 31.5986C25.7308 31.5986 23.3895 33.4479 22.2362 35.1239C21.5082 35.5212 19.9495 36.3719 18.2975 37.2799C17.6628 37.6292 17.0148 37.9852 16.4002 38.3239C16.3588 38.2772 16.3162 38.2319 16.2735 38.1852C12.9948 34.6879 6.93617 32.2146 7.19217 27.5119C7.2855 25.8026 7.88017 21.3012 18.8362 15.8426C27.8108 11.3706 34.9962 12.6012 36.2375 15.3279C38.0108 19.2252 32.3975 26.4666 23.0775 27.5119C19.5268 27.9106 17.6562 26.5332 17.1908 26.0212C16.7015 25.4812 16.6282 25.4572 16.4455 25.5586C16.1482 25.7239 16.3362 26.1999 16.4455 26.4839C16.7242 27.2079 17.8655 28.4919 19.8122 29.1319C21.5255 29.6946 25.6948 30.0026 30.7362 28.0519C36.3842 25.8679 40.7935 19.7906 39.4975 14.7119C38.1802 9.54658 29.6148 7.84791 21.5082 10.7279C16.6775 12.4426 11.4548 15.1332 7.69883 18.6452C3.2335 22.8212 2.5215 26.4572 2.81483 27.9759C3.8575 33.3732 11.2962 36.8879 14.2748 39.4919C14.1282 39.5732 13.9895 39.6492 13.8642 39.7186C12.3708 40.4572 6.70017 43.4252 5.2815 46.5599C3.67217 50.1159 5.5375 52.6679 6.77217 53.0119C10.5975 54.0759 14.5228 52.1612 16.6335 49.0146C18.7428 45.8692 18.4855 41.7719 17.5175 39.9026C17.5055 39.8799 17.4922 39.8572 17.4802 39.8332C17.8655 39.6052 18.2588 39.3732 18.6482 39.1439C19.4082 38.6972 20.1548 38.2812 20.8015 37.9292C20.4388 38.9212 20.1735 40.1119 20.0362 41.8306C19.8735 43.8492 20.7015 46.4586 21.7842 47.4852C22.2615 47.9372 22.8348 47.9479 23.1975 47.9479C24.4575 47.9479 25.0322 46.8999 25.6655 45.6599C26.4415 44.1399 27.1308 42.3692 27.1308 42.3692C27.1308 42.3692 26.2668 47.1506 28.6215 47.1506C29.4802 47.1506 30.3428 46.0372 30.7282 45.4706C30.7295 45.4772 30.7295 45.4799 30.7295 45.4799C30.7295 45.4799 30.7522 45.4426 30.7962 45.3692C30.8855 45.2332 30.9362 45.1466 30.9362 45.1466C30.9362 45.1466 30.9375 45.1372 30.9402 45.1212C31.2855 44.5226 32.0508 43.1572 33.1975 40.9052C34.6802 37.9959 36.1015 34.3506 36.1015 34.3506C36.1015 34.3506 36.2335 35.2412 36.6668 36.7159C36.9215 37.5826 37.4628 38.5412 37.8908 39.4612C37.5468 39.9386 37.3362 40.2119 37.3362 40.2119C37.3362 40.2119 37.3375 40.2172 37.3415 40.2266C37.0668 40.5919 36.7588 40.9852 36.4362 41.3692C35.2655 42.7626 33.8722 44.3546 33.6855 44.8132C33.4655 45.3546 33.5175 45.7519 33.9428 46.0732C34.2535 46.3066 34.8055 46.3439 35.3828 46.3052C36.4348 46.2346 37.1735 45.9732 37.5388 45.8146C38.1082 45.6132 38.7708 45.2972 39.3922 44.8399C40.5402 43.9959 41.2322 42.7892 41.1655 41.1892C41.1282 40.3079 40.8482 39.4346 40.4922 38.6106C40.5962 38.4612 40.7002 38.3092 40.8055 38.1572C42.6148 35.5119 44.0188 32.6052 44.0188 32.6052C44.0188 32.6052 44.1508 33.4959 44.5842 34.9706C44.8028 35.7159 45.2362 36.5306 45.6255 37.3279C43.9242 38.7106 42.8695 40.3172 42.5028 41.3706C41.8255 43.3199 42.3562 44.2026 43.3508 44.4039C43.8015 44.4946 44.4388 44.2879 44.9175 44.0852C45.5135 43.8879 46.2295 43.5586 46.8988 43.0666C48.0468 42.2226 49.1508 41.0412 49.0842 39.4426C49.0535 38.7146 48.8562 37.9919 48.5882 37.2986C50.0308 36.6972 51.8975 36.3639 54.2762 36.6412C59.3788 37.2372 60.3788 40.4226 60.1882 41.7559C59.9962 43.0892 58.9268 43.8226 58.5682 44.0439C58.2108 44.2652 58.1015 44.3426 58.1308 44.5066C58.1748 44.7452 58.3402 44.7372 58.6455 44.6852C59.0655 44.6146 61.3242 43.6012 61.4215 41.1399C61.5428 38.0119 58.5495 34.5799 53.2468 34.6079ZM13.9175 47.8666C12.2268 49.7106 9.86683 50.4066 8.8535 49.8199C7.76017 49.1866 8.1935 46.4719 10.2668 44.5146C11.5308 43.3226 13.1628 42.2239 14.2455 41.5479C14.4922 41.3999 14.8535 41.1826 15.2935 40.9186C15.3668 40.8772 15.4082 40.8546 15.4082 40.8546L15.4068 40.8519C15.4922 40.8012 15.5788 40.7492 15.6682 40.6946C16.4242 43.4799 15.6922 45.9319 13.9175 47.8666ZM26.2308 39.4972C25.6428 40.9319 24.4108 44.6039 23.6602 44.4066C23.0162 44.2372 22.6242 41.4466 23.5322 38.6999C23.9882 37.3172 24.9642 35.6652 25.5375 35.0239C26.4602 33.9919 27.4762 33.6546 27.7228 34.0732C28.0362 34.6066 26.6002 38.5972 26.2308 39.4972ZM36.4028 44.3506C36.1535 44.4812 35.9242 44.5626 35.8188 44.4999C35.7402 44.4532 35.9215 44.2812 35.9215 44.2812C35.9215 44.2812 37.1935 42.9119 37.6948 42.2892C37.9868 41.9266 38.3242 41.4959 38.6922 41.0159C38.6948 41.0639 38.6962 41.1119 38.6962 41.1586C38.6935 42.7986 37.1095 43.9052 36.4028 44.3506ZM44.2388 42.5639C44.0522 42.4319 44.0842 42.0039 44.6962 40.6692C44.9362 40.1452 45.4855 39.2639 46.4375 38.4212C46.5482 38.7679 46.6148 39.0999 46.6135 39.4092C46.6015 41.4732 45.1295 42.2439 44.2388 42.5639Z" fill="#F06292"/>
</svg>