<svg xmlns="http://www.w3.org/2000/svg" width="64" height="64" viewBox="0 0 64 64" fill="none">
  <g clip-path="url(#clip0_8_1376)">
    <path d="M58.9123 49.0529C55.4327 48.9661 52.736 49.3143 50.4741 50.271C49.8217 50.5319 48.7777 50.5321 48.6907 51.3584C49.0389 51.7065 49.0822 52.2719 49.3868 52.7503C49.909 53.6199 50.822 54.7946 51.6486 55.4036C52.5619 56.0994 53.4754 56.7952 54.4321 57.4043C56.1285 58.4483 58.0424 59.057 59.6952 60.101C60.6524 60.7095 61.6088 61.4929 62.5657 62.1454C63.0443 62.493 63.3486 63.0586 63.9576 63.2761V63.1457C63.6531 62.7541 63.5661 62.1887 63.2618 61.7538C62.8271 61.3188 62.3919 60.9273 61.957 60.4923C60.6955 58.7962 59.1298 57.3172 57.4334 56.0994C56.0418 55.1425 52.9968 53.8376 52.4314 52.2283C52.4314 52.2283 52.3878 52.1849 52.3444 52.1415C53.3013 52.0544 54.4321 51.7065 55.3457 51.4454C56.8246 51.0538 58.1729 51.1409 59.6952 50.7496C60.391 50.5755 61.0871 50.358 61.7829 50.1406V49.7493C61.0003 48.9661 60.4346 47.9224 59.6081 47.1829C57.39 45.2688 54.9541 43.3988 52.4314 41.8331C51.0829 40.9632 49.3431 40.3975 47.9078 39.6583C47.3861 39.3969 46.5159 39.2668 46.2117 38.8318C45.4286 37.8749 44.9936 36.6137 44.4282 35.4826C43.1673 33.0901 41.9489 30.4373 40.8616 27.9147C40.079 26.2182 39.6004 24.5218 38.6434 22.9561C34.1635 15.562 29.292 11.082 21.8108 6.68886C20.2014 5.77558 18.2878 5.38401 16.2435 4.90568C15.1564 4.86202 14.0687 4.77525 12.9814 4.73159C12.2855 4.42706 11.5895 3.60083 10.9804 3.20926C8.5017 1.64327 2.10758 -1.74902 0.280742 2.73093C-0.893681 5.55811 2.02055 8.34162 3.02087 9.77717C3.76061 10.7775 4.71728 11.9083 5.23928 13.0393C5.5438 13.7782 5.63057 14.5616 5.93509 15.3445C6.63118 17.2578 7.28333 19.3895 8.19689 21.173C8.6755 22.0862 9.19722 23.0432 9.80626 23.8694C10.1542 24.3478 10.7629 24.5655 10.8936 25.3484C10.2849 26.2183 10.2412 27.5231 9.89303 28.6105C8.32732 33.5254 8.93636 39.6147 11.1545 43.2247C11.8503 44.3118 13.5033 46.7046 15.7215 45.791C17.6788 45.0082 17.2438 42.5289 17.8092 40.3542C17.9399 39.8319 17.8529 39.4843 18.1137 39.1363C18.1139 39.1797 18.1137 39.2234 18.1137 39.2234C18.7228 40.4412 19.3315 41.6156 19.8969 42.8334C21.2454 44.9645 23.594 47.1829 25.5513 48.6619C26.5955 49.4445 27.4218 50.793 28.7266 51.2716V51.1409H28.6396C28.3784 50.7493 27.9871 50.5755 27.6392 50.271C26.8564 49.4881 25.9862 48.5312 25.3774 47.6613C23.5509 45.2254 21.9412 42.5289 20.5059 39.7451C19.8101 38.3969 19.2011 36.9179 18.6357 35.5697C18.3746 35.0474 18.3746 34.2649 17.9396 34.004C17.2872 34.9607 16.3305 35.7872 15.8519 36.9616C15.026 38.8318 14.9386 41.137 14.6341 43.5292C14.4603 43.5729 14.5471 43.5292 14.46 43.6163C13.0684 43.2681 12.5898 41.8331 12.0678 40.615C10.7629 37.527 10.5455 32.5684 11.6765 29.0021C11.981 28.0885 13.2859 25.2179 12.7639 24.348C12.503 23.5215 11.6328 23.0432 11.1545 22.3907C10.5891 21.5642 9.98007 20.5205 9.58878 19.607C8.54479 17.1713 8.02279 14.4746 6.89204 12.0387C6.37004 10.9077 5.45676 9.73352 4.71728 8.6898C3.89104 7.51538 2.97748 6.68886 2.32505 5.29696C2.10785 4.81863 1.80305 4.03577 2.15096 3.51377C2.238 3.16587 2.41182 3.03544 2.76 2.94839C3.32538 2.46978 4.93475 3.07882 5.50012 3.33968C7.10949 3.99183 8.45773 4.60115 9.80624 5.51444C10.415 5.94939 11.0674 6.77591 11.8503 6.99338H12.7639C14.1557 7.29763 15.7215 7.08042 17.0263 7.47172C19.3318 8.21091 21.4192 9.29856 23.2897 10.473C28.9877 14.083 33.6849 19.2157 36.8602 25.3484C37.3822 26.3484 37.5994 27.2623 38.0781 28.306C38.9916 30.4373 40.1224 32.6121 41.0357 34.6998C41.949 36.7439 42.8189 38.8318 44.1237 40.5283C44.7764 41.4413 47.3858 41.9199 48.5602 42.3985C49.4301 42.7898 50.7787 43.138 51.5615 43.6163C53.0402 44.5293 54.5191 45.5736 55.911 46.5739C56.6071 47.0956 58.7816 48.1833 58.9123 49.0529Z" fill="#00546B"/>
    <path d="M14.5469 11.2556C13.8074 11.2556 13.2857 11.3429 12.7637 11.4734C12.7637 11.4734 12.7637 11.517 12.7637 11.5604H12.8507C13.1989 12.2562 13.8074 12.7348 14.2423 13.3436C14.5905 14.0394 14.8948 14.7355 15.2429 15.4316C15.2863 15.3879 15.3297 15.3445 15.3297 15.3445C15.939 14.9093 16.2433 14.2135 16.2433 13.1698C15.9821 12.8653 15.9388 12.5607 15.7213 12.2562C15.4604 11.821 14.8948 11.6038 14.5469 11.2556Z" fill="#00546B"/>
  </g>
  <defs>
    <clipPath id="clip0_8_1376">
      <rect width="64" height="64" fill="white"/>
    </clipPath>
  </defs>
</svg>