<svg xmlns="http://www.w3.org/2000/svg" width="54" height="64" viewBox="0 0 54 64" fill="none">
  <g clip-path="url(#clip0_8_1129)">
    <path d="M46.1002 18.6026C56.5122 28.9855 56.5122 45.6413 46.1002 56.0963C35.9051 66.4791 19.1302 66.4791 8.71818 56.0963C-1.69382 45.7134 -1.69382 28.9855 8.71818 18.6026L27.373 0V9.30131L25.6377 11.0318L13.2734 23.3614C5.46443 31.0044 5.46443 43.5503 13.2734 51.3374C20.9378 59.1246 33.519 59.1246 41.328 51.3374C49.137 43.6945 49.137 31.1486 41.328 23.3614L46.1002 18.6026ZM36.7728 17.449C34.856 17.449 33.3021 15.8994 33.3021 13.988C33.3021 12.0766 34.856 10.5271 36.7728 10.5271C38.6896 10.5271 40.2434 12.0766 40.2434 13.988C40.2434 15.8994 38.6896 17.449 36.7728 17.449Z" fill="#EE4C2C"/>
  </g>
  <defs>
    <clipPath id="clip0_8_1129">
      <rect width="53" height="64" fill="white" transform="translate(0.90918)"/>
    </clipPath>
  </defs>
</svg>