<?xml version="1.0" encoding="UTF-8"?>
<!-- Do not edit this file with editors other than draw.io -->
<!DOCTYPE svg PUBLIC "-//W3C//DTD SVG 1.1//EN" "http://www.w3.org/Graphics/SVG/1.1/DTD/svg11.dtd">
<svg xmlns="http://www.w3.org/2000/svg" xmlns:xlink="http://www.w3.org/1999/xlink" version="1.1" width="560px" height="480px" viewBox="-0.5 -0.5 560 480" content="&lt;mxfile host=&quot;app.diagrams.net&quot; modified=&quot;2024-07-07T17:14:50.371Z&quot; agent=&quot;Mozilla/5.0 (X11; Linux x86_64) AppleWebKit/537.36 (KHTML, like Gecko) Chrome/126.0.0.0 Safari/537.36&quot; etag=&quot;Ki3lguJ-98EcrScV1soz&quot; version=&quot;24.6.4&quot; type=&quot;device&quot; scale=&quot;1&quot; border=&quot;0&quot;&gt;&#10;  &lt;diagram name=&quot;Page-1&quot; id=&quot;69NaoW3-1UEVG75z8Y29&quot;&gt;&#10;    &lt;mxGraphModel dx=&quot;1259&quot; dy=&quot;704&quot; grid=&quot;1&quot; gridSize=&quot;10&quot; guides=&quot;1&quot; tooltips=&quot;1&quot; connect=&quot;1&quot; arrows=&quot;1&quot; fold=&quot;1&quot; page=&quot;1&quot; pageScale=&quot;1&quot; pageWidth=&quot;827&quot; pageHeight=&quot;1169&quot; math=&quot;0&quot; shadow=&quot;0&quot;&gt;&#10;      &lt;root&gt;&#10;        &lt;mxCell id=&quot;0&quot; /&gt;&#10;        &lt;mxCell id=&quot;1&quot; parent=&quot;0&quot; /&gt;&#10;        &lt;mxCell id=&quot;Kh8rMTdNqEXlMxZrt49M-2&quot; value=&quot;&quot; style=&quot;rounded=0;whiteSpace=wrap;html=1;strokeColor=none;&quot; vertex=&quot;1&quot; parent=&quot;1&quot;&gt;&#10;          &lt;mxGeometry width=&quot;560&quot; height=&quot;480&quot; as=&quot;geometry&quot; /&gt;&#10;        &lt;/mxCell&gt;&#10;        &lt;mxCell id=&quot;Kh8rMTdNqEXlMxZrt49M-1&quot; value=&quot;&quot; style=&quot;shape=image;verticalLabelPosition=bottom;labelBackgroundColor=default;verticalAlign=top;aspect=fixed;imageAspect=0;image=https://cdn.prod.website-files.com/63f9c911e0545999466b0107/65689da78214c2eed0aef4be_illustration%20org.svg;&quot; vertex=&quot;1&quot; parent=&quot;1&quot;&gt;&#10;          &lt;mxGeometry x=&quot;65&quot; y=&quot;42&quot; width=&quot;430&quot; height=&quot;396&quot; as=&quot;geometry&quot; /&gt;&#10;        &lt;/mxCell&gt;&#10;      &lt;/root&gt;&#10;    &lt;/mxGraphModel&gt;&#10;  &lt;/diagram&gt;&#10;&lt;/mxfile&gt;&#10;"><defs/><g><g data-cell-id="0"><g data-cell-id="1"><g data-cell-id="Kh8rMTdNqEXlMxZrt49M-2"><g><rect x="0" y="0" width="560" height="480" fill="rgb(255, 255, 255)" stroke="none" pointer-events="all"/></g></g><g data-cell-id="Kh8rMTdNqEXlMxZrt49M-1"><g><svg fill="none" viewBox="0 0 430 396" height="396" width="430" xmlns="http://www.w3.org/2000/svg" x="64.5" y="41.5" style="font-family: initial;">&#xa;<path fill="white" d="M63.4648 367.236H12.7911C9.31017 367.236 6.48828 370.058 6.48828 373.539V387.398C6.48828 390.879 9.31017 393.701 12.7911 393.701H63.4648C66.9458 393.701 69.7677 390.879 69.7677 387.398V373.539C69.7677 370.058 66.9458 367.236 63.4648 367.236Z"/>&#xa;<path stroke="#7E00CC" d="M63.4648 367.236H12.7911C9.31017 367.236 6.48828 370.058 6.48828 373.539V387.398C6.48828 390.879 9.31017 393.701 12.7911 393.701H63.4648C66.9458 393.701 69.7677 390.879 69.7677 387.398V373.539C69.7677 370.058 66.9458 367.236 63.4648 367.236Z"/>&#xa;<path fill="black" d="M23.6838 381.39V378.333H23.5731L21.5395 383.299L19.5059 378.333H19.3953V381.39V386.232H18.3301V376.576H19.8241L21.5257 380.837H21.6087L23.3102 376.576H24.749V386.232H23.6838V381.39ZM29.8344 386.398C29.3364 386.398 28.8844 386.311 28.4787 386.135C28.0821 385.96 27.7409 385.711 27.455 385.388C27.1783 385.056 26.9662 384.664 26.8186 384.212C26.671 383.751 26.5973 383.235 26.5973 382.663C26.5973 382.1 26.671 381.589 26.8186 381.127C26.9662 380.666 27.1783 380.274 27.455 379.952C27.7409 379.62 28.0821 379.366 28.4787 379.191C28.8844 379.015 29.3364 378.928 29.8344 378.928C30.3324 378.928 30.7797 379.015 31.1762 379.191C31.582 379.366 31.9233 379.62 32.1999 379.952C32.4858 380.274 32.7026 380.666 32.8501 381.127C32.9977 381.589 33.0715 382.1 33.0715 382.663C33.0715 383.235 32.9977 383.751 32.8501 384.212C32.7026 384.664 32.4858 385.056 32.1999 385.388C31.9233 385.711 31.582 385.96 31.1762 386.135C30.7797 386.311 30.3324 386.398 29.8344 386.398ZM29.8344 385.444C30.4523 385.444 30.9503 385.259 31.3284 384.89C31.7065 384.521 31.8956 383.95 31.8956 383.175V382.151C31.8956 381.376 31.7065 380.805 31.3284 380.436C30.9503 380.067 30.4523 379.882 29.8344 379.882C29.2165 379.882 28.7184 380.067 28.3403 380.436C27.9622 380.805 27.7731 381.376 27.7731 382.151V383.175C27.7731 383.95 27.9622 384.521 28.3403 384.89C28.7184 385.259 29.2165 385.444 29.8344 385.444ZM39.8584 385.07H39.8031C39.342 385.955 38.6088 386.398 37.6035 386.398C36.7274 386.398 36.0403 386.071 35.5423 385.416C35.0535 384.761 34.8091 383.843 34.8091 382.663C34.8091 381.483 35.0535 380.565 35.5423 379.91C36.0403 379.255 36.7274 378.928 37.6035 378.928C38.6088 378.928 39.342 379.371 39.8031 380.256H39.8584V375.995H40.9651V386.232H39.8584V385.07ZM38.0324 385.416C38.2814 385.416 38.5166 385.384 38.7379 385.319C38.9592 385.255 39.1529 385.162 39.3189 385.042C39.4849 384.913 39.614 384.761 39.7063 384.586C39.8077 384.401 39.8584 384.189 39.8584 383.95V381.376C39.8584 381.137 39.8077 380.929 39.7063 380.754C39.614 380.57 39.4849 380.417 39.3189 380.297C39.1529 380.168 38.9592 380.071 38.7379 380.007C38.5166 379.942 38.2814 379.91 38.0324 379.91C37.3868 379.91 36.8842 380.108 36.5245 380.505C36.174 380.892 35.9988 381.409 35.9988 382.054V383.272C35.9988 383.917 36.174 384.438 36.5245 384.835C36.8842 385.222 37.3868 385.416 38.0324 385.416ZM46.5486 386.398C46.0321 386.398 45.5664 386.311 45.1514 386.135C44.7456 385.96 44.3951 385.711 44.1 385.388C43.8141 385.056 43.5928 384.664 43.436 384.212C43.2792 383.751 43.2008 383.239 43.2008 382.677C43.2008 382.105 43.2792 381.589 43.436 381.127C43.602 380.666 43.8279 380.274 44.1138 379.952C44.3997 379.62 44.741 379.366 45.1375 379.191C45.5433 379.015 45.9906 378.928 46.4794 378.928C46.959 378.928 47.3924 379.015 47.7798 379.191C48.1763 379.366 48.513 379.61 48.7896 379.924C49.0663 380.228 49.2784 380.593 49.426 381.017C49.5736 381.441 49.6473 381.907 49.6473 382.414V382.94H44.3628V383.272C44.3628 383.585 44.4136 383.876 44.515 384.143C44.6165 384.411 44.7594 384.641 44.9439 384.835C45.1375 385.029 45.3681 385.181 45.6355 385.291C45.9122 385.393 46.2166 385.444 46.5486 385.444C47.0281 385.444 47.4432 385.333 47.7936 385.112C48.1441 384.89 48.4115 384.586 48.596 384.199L49.4122 384.752C49.2 385.231 48.845 385.628 48.347 385.942C47.8582 386.246 47.2587 386.398 46.5486 386.398ZM46.4794 379.841C46.1751 379.841 45.8938 379.896 45.6355 380.007C45.3773 380.118 45.1514 380.27 44.9577 380.463C44.7732 380.657 44.6257 380.888 44.515 381.155C44.4136 381.413 44.3628 381.699 44.3628 382.013V382.11H48.4576V381.957C48.4576 381.644 48.4069 381.358 48.3055 381.1C48.2132 380.842 48.0795 380.62 47.9043 380.436C47.7383 380.242 47.5308 380.095 47.2818 379.993C47.042 379.892 46.7745 379.841 46.4794 379.841ZM51.6755 385.291H54.1656V376.936H51.6755V375.995H55.2723V385.291H57.7623V386.232H51.6755V385.291Z"/>&#xa;<path fill="white" d="M209.676 47.4331H159.002C155.521 47.4331 152.699 50.255 152.699 53.736V67.5948C152.699 71.0758 155.521 73.8977 159.002 73.8977H209.676C213.157 73.8977 215.979 71.0758 215.979 67.5948V53.736C215.979 50.255 213.157 47.4331 209.676 47.4331Z"/>&#xa;<path stroke="#7E00CC" d="M209.676 47.4331H159.002C155.521 47.4331 152.699 50.255 152.699 53.736V67.5948C152.699 71.0758 155.521 73.8977 159.002 73.8977H209.676C213.157 73.8977 215.979 71.0758 215.979 67.5948V53.736C215.979 50.255 213.157 47.4331 209.676 47.4331Z"/>&#xa;<path fill="black" d="M169.897 61.5878V58.5305H169.786L167.752 63.4969L165.719 58.5305H165.608V61.5878V66.4296H164.543V56.7736H166.037L167.739 61.0345H167.822L169.523 56.7736H170.962V66.4296H169.897V61.5878ZM176.047 66.5956C175.549 66.5956 175.097 66.508 174.691 66.3328C174.295 66.1576 173.953 65.9086 173.668 65.5858C173.391 65.2538 173.179 64.8618 173.031 64.4099C172.884 63.9488 172.81 63.4323 172.81 62.8605C172.81 62.2979 172.884 61.7861 173.031 61.325C173.179 60.8638 173.391 60.4719 173.668 60.1491C173.953 59.8171 174.295 59.5635 174.691 59.3882C175.097 59.213 175.549 59.1254 176.047 59.1254C176.545 59.1254 176.992 59.213 177.389 59.3882C177.795 59.5635 178.136 59.8171 178.412 60.1491C178.698 60.4719 178.915 60.8638 179.063 61.325C179.21 61.7861 179.284 62.2979 179.284 62.8605C179.284 63.4323 179.21 63.9488 179.063 64.4099C178.915 64.8618 178.698 65.2538 178.412 65.5858C178.136 65.9086 177.795 66.1576 177.389 66.3328C176.992 66.508 176.545 66.5956 176.047 66.5956ZM176.047 65.6411C176.665 65.6411 177.163 65.4566 177.541 65.0877C177.919 64.7188 178.108 64.1471 178.108 63.3724V62.3487C178.108 61.574 177.919 61.0022 177.541 60.6333C177.163 60.2644 176.665 60.0799 176.047 60.0799C175.429 60.0799 174.931 60.2644 174.553 60.6333C174.175 61.0022 173.986 61.574 173.986 62.3487V63.3724C173.986 64.1471 174.175 64.7188 174.553 65.0877C174.931 65.4566 175.429 65.6411 176.047 65.6411ZM186.071 65.2676H186.015C185.554 66.1529 184.821 66.5956 183.816 66.5956C182.94 66.5956 182.253 66.2682 181.755 65.6134C181.266 64.9586 181.021 64.041 181.021 62.8605C181.021 61.68 181.266 60.7624 181.755 60.1076C182.253 59.4528 182.94 59.1254 183.816 59.1254C184.821 59.1254 185.554 59.5681 186.015 60.4534H186.071V56.1926H187.177V66.4296H186.071V65.2676ZM184.245 65.6134C184.494 65.6134 184.729 65.5811 184.95 65.5166C185.171 65.452 185.365 65.3598 185.531 65.2399C185.697 65.1108 185.826 64.9586 185.918 64.7834C186.02 64.599 186.071 64.3868 186.071 64.147V61.574C186.071 61.3342 186.02 61.1267 185.918 60.9514C185.826 60.767 185.697 60.6148 185.531 60.4949C185.365 60.3658 185.171 60.269 184.95 60.2044C184.729 60.1399 184.494 60.1076 184.245 60.1076C183.599 60.1076 183.096 60.3059 182.737 60.7024C182.386 61.0898 182.211 61.6062 182.211 62.2518V63.4692C182.211 64.1148 182.386 64.6358 182.737 65.0324C183.096 65.4198 183.599 65.6134 184.245 65.6134ZM192.762 66.5956C192.245 66.5956 191.779 66.508 191.364 66.3328C190.959 66.1576 190.608 65.9086 190.313 65.5858C190.027 65.2538 189.806 64.8618 189.649 64.4099C189.492 63.9488 189.414 63.4369 189.414 62.8743C189.414 62.3025 189.492 61.7861 189.649 61.325C189.815 60.8638 190.041 60.4719 190.327 60.1491C190.613 59.8171 190.954 59.5635 191.351 59.3882C191.756 59.213 192.204 59.1254 192.692 59.1254C193.172 59.1254 193.605 59.213 193.993 59.3882C194.389 59.5635 194.726 59.8079 195.003 60.1214C195.279 60.4258 195.491 60.7901 195.639 61.2143C195.787 61.6385 195.86 62.1043 195.86 62.6115V63.1372H190.576V63.4692C190.576 63.7828 190.627 64.0733 190.728 64.3407C190.829 64.6082 190.972 64.8387 191.157 65.0324C191.351 65.2261 191.581 65.3783 191.849 65.4889C192.125 65.5904 192.43 65.6411 192.762 65.6411C193.241 65.6411 193.656 65.5304 194.007 65.3091C194.357 65.0877 194.625 64.7834 194.809 64.3961L195.625 64.9494C195.413 65.429 195.058 65.8255 194.56 66.1391C194.071 66.4435 193.472 66.5956 192.762 66.5956ZM192.692 60.0384C192.388 60.0384 192.107 60.0938 191.849 60.2044C191.59 60.3151 191.364 60.4673 191.171 60.6609C190.986 60.8546 190.839 61.0852 190.728 61.3526C190.627 61.6109 190.576 61.8968 190.576 62.2103V62.3072H194.671V62.155C194.671 61.8414 194.62 61.5555 194.518 61.2973C194.426 61.0391 194.293 60.8177 194.117 60.6333C193.951 60.4396 193.744 60.292 193.495 60.1906C193.255 60.0891 192.988 60.0384 192.692 60.0384ZM197.888 65.4889H200.378V57.1333H197.888V56.1926H201.485V65.4889H203.975V66.4296H197.888V65.4889Z"/>&#xa;<path stroke="#7E00CC" d="M23.3945 328.218L70.4752 339.399"/>&#xa;<path stroke="#7E00CC" d="M51.5469 315.642L72.9784 335.929"/>&#xa;<path stroke="#7E00CC" d="M17.8711 326.982L51.9881 317.125"/>&#xa;<path stroke="#7E00CC" d="M18.5039 328.913L32.8079 297.772"/>&#xa;<path stroke="#7E00CC" d="M49.168 316.611L71.4495 298.417"/>&#xa;<path stroke="#7E00CC" d="M42.2363 352.145L74.3589 339.05"/>&#xa;<path stroke="#7E00CC" d="M74.0017 339.601L72.8574 297.882"/>&#xa;<path stroke="#7E00CC" d="M30.7383 296.814L71.8357 298.286"/>&#xa;<path stroke="#7E00CC" d="M31.9043 294.667L43.0205 352.57"/>&#xa;<path stroke="#7E00CC" fill="#E339FF" d="M21.5302 331.402C23.4937 330.192 24.1047 327.62 22.8949 325.656C21.685 323.693 19.1125 323.082 17.149 324.292C15.1855 325.501 14.5745 328.074 15.7844 330.037C16.9942 332.001 19.5667 332.612 21.5302 331.402Z"/>&#xa;<path stroke="#7E00CC" fill="#EB9DFF" d="M74.3154 301.111C76.2789 299.901 76.8899 297.328 75.68 295.365C74.4702 293.401 71.8977 292.79 69.9342 294C67.9706 295.21 67.3597 297.782 68.5695 299.746C69.7794 301.709 72.3519 302.32 74.3154 301.111Z"/>&#xa;<path stroke="#7E00CC" fill="#A717FF" d="M44.1457 355.423C45.6623 354.489 46.1342 352.502 45.1998 350.985C44.2653 349.469 42.2783 348.997 40.7617 349.931C39.2451 350.866 38.7732 352.853 39.7076 354.369C40.6421 355.886 42.6291 356.358 44.1457 355.423Z"/>&#xa;<path stroke="#7E00CC" fill="#D170FF" d="M78.0747 343.45C80.932 341.689 81.8211 337.946 80.0605 335.089C78.2999 332.231 74.5564 331.342 71.699 333.103C68.8417 334.863 67.9526 338.607 69.7132 341.464C71.4738 344.322 75.2173 345.211 78.0747 343.45Z"/>&#xa;<path stroke="#7E00CC" fill="#B843FF" d="M34.2153 301.257C37.0726 299.496 37.9617 295.753 36.2011 292.895C34.4405 290.038 30.697 289.149 27.8397 290.91C24.9823 292.67 24.0932 296.414 25.8538 299.271C27.6144 302.128 31.3579 303.017 34.2153 301.257Z"/>&#xa;<path stroke="#7E00CC" fill="#C985FF" d="M55.6464 321.544C59.3976 319.233 60.5648 314.318 58.2535 310.567C55.9421 306.816 51.0276 305.649 47.2764 307.96C43.5253 310.271 42.3581 315.186 44.6694 318.937C46.9807 322.688 51.8953 323.855 55.6464 321.544Z"/>&#xa;<path fill="white" d="M422.359 353.427H371.686C368.205 353.427 365.383 356.248 365.383 359.729V373.588C365.383 377.069 368.205 379.891 371.686 379.891H422.359C425.84 379.891 428.662 377.069 428.662 373.588V359.729C428.662 356.248 425.84 353.427 422.359 353.427Z"/>&#xa;<path stroke="#7E00CC" d="M422.359 353.427H371.686C368.205 353.427 365.383 356.248 365.383 359.729V373.588C365.383 377.069 368.205 379.891 371.686 379.891H422.359C425.84 379.891 428.662 377.069 428.662 373.588V359.729C428.662 356.248 425.84 353.427 422.359 353.427Z"/>&#xa;<path fill="black" d="M382.58 367.581V364.523H382.47L380.436 369.49L378.402 364.523H378.292V367.581V372.423H377.227V362.767H378.721L380.422 367.027H380.505L382.207 362.767H383.645V372.423H382.58V367.581ZM388.731 372.589C388.232 372.589 387.781 372.501 387.375 372.326C386.978 372.151 386.637 371.901 386.351 371.579C386.074 371.247 385.862 370.855 385.715 370.403C385.567 369.942 385.493 369.425 385.493 368.853C385.493 368.291 385.567 367.779 385.715 367.318C385.862 366.857 386.074 366.465 386.351 366.142C386.637 365.81 386.978 365.556 387.375 365.381C387.781 365.206 388.232 365.118 388.731 365.118C389.229 365.118 389.676 365.206 390.072 365.381C390.478 365.556 390.819 365.81 391.096 366.142C391.382 366.465 391.599 366.857 391.746 367.318C391.894 367.779 391.968 368.291 391.968 368.853C391.968 369.425 391.894 369.942 391.746 370.403C391.599 370.855 391.382 371.247 391.096 371.579C390.819 371.901 390.478 372.151 390.072 372.326C389.676 372.501 389.229 372.589 388.731 372.589ZM388.731 371.634C389.348 371.634 389.846 371.45 390.225 371.081C390.603 370.712 390.792 370.14 390.792 369.365V368.342C390.792 367.567 390.603 366.995 390.225 366.626C389.846 366.257 389.348 366.073 388.731 366.073C388.113 366.073 387.615 366.257 387.236 366.626C386.858 366.995 386.669 367.567 386.669 368.342V369.365C386.669 370.14 386.858 370.712 387.236 371.081C387.615 371.45 388.113 371.634 388.731 371.634ZM398.755 371.261H398.7C398.239 372.146 397.506 372.589 396.501 372.589C395.624 372.589 394.937 372.261 394.439 371.606C393.95 370.952 393.706 370.034 393.706 368.853C393.706 367.673 393.95 366.755 394.439 366.101C394.937 365.446 395.624 365.118 396.501 365.118C397.506 365.118 398.239 365.561 398.7 366.446H398.755V362.186H399.862V372.423H398.755V371.261ZM396.929 371.606C397.178 371.606 397.414 371.574 397.635 371.51C397.856 371.445 398.05 371.353 398.216 371.233C398.382 371.104 398.511 370.952 398.603 370.776C398.705 370.592 398.755 370.38 398.755 370.14V367.567C398.755 367.327 398.705 367.12 398.603 366.944C398.511 366.76 398.382 366.608 398.216 366.488C398.05 366.359 397.856 366.262 397.635 366.197C397.414 366.133 397.178 366.101 396.929 366.101C396.284 366.101 395.781 366.299 395.421 366.695C395.071 367.083 394.896 367.599 394.896 368.245V369.462C394.896 370.108 395.071 370.629 395.421 371.025C395.781 371.413 396.284 371.606 396.929 371.606ZM405.445 372.589C404.929 372.589 404.463 372.501 404.048 372.326C403.642 372.151 403.292 371.901 402.997 371.579C402.711 371.247 402.489 370.855 402.333 370.403C402.176 369.942 402.097 369.43 402.097 368.867C402.097 368.295 402.176 367.779 402.333 367.318C402.499 366.857 402.725 366.465 403.01 366.142C403.296 365.81 403.638 365.556 404.034 365.381C404.44 365.206 404.887 365.118 405.376 365.118C405.856 365.118 406.289 365.206 406.676 365.381C407.073 365.556 407.41 365.801 407.686 366.114C407.963 366.419 408.175 366.783 408.323 367.207C408.47 367.631 408.544 368.097 408.544 368.604V369.13H403.259V369.462C403.259 369.776 403.31 370.066 403.412 370.334C403.513 370.601 403.656 370.832 403.84 371.025C404.034 371.219 404.265 371.371 404.532 371.482C404.809 371.583 405.113 371.634 405.445 371.634C405.925 371.634 406.34 371.523 406.69 371.302C407.041 371.081 407.308 370.776 407.493 370.389L408.309 370.942C408.097 371.422 407.742 371.818 407.244 372.132C406.755 372.436 406.155 372.589 405.445 372.589ZM405.376 366.031C405.072 366.031 404.79 366.087 404.532 366.197C404.274 366.308 404.048 366.46 403.854 366.654C403.67 366.848 403.522 367.078 403.412 367.346C403.31 367.604 403.259 367.89 403.259 368.203V368.3H407.354V368.148C407.354 367.834 407.304 367.548 407.202 367.29C407.11 367.032 406.976 366.811 406.801 366.626C406.635 366.433 406.427 366.285 406.178 366.184C405.939 366.082 405.671 366.031 405.376 366.031ZM410.572 371.482H413.062V363.126H410.572V362.186H414.169V371.482H416.659V372.423H410.572V371.482Z"/>&#xa;<path stroke="#7E00CC" d="M388.137 316.21L365.701 329.944"/>&#xa;<path stroke="#7E00CC" d="M360.393 302.892L386.519 313.65"/>&#xa;<path stroke="#7E00CC" d="M359.035 303.008L395.918 338.355"/>&#xa;<path stroke="#7E00CC" d="M387.551 316.756L403.894 307.424"/>&#xa;<path stroke="#7E00CC" d="M389.934 315.584L395.174 337.4"/>&#xa;<path stroke="#7E00CC" d="M360.297 302.279L363.004 330.192"/>&#xa;<path stroke="#7E00CC" d="M362.58 329.691L395.16 338.463"/>&#xa;<path stroke="#7E00CC" d="M405.811 306.227L395.158 337.721"/>&#xa;<path stroke="#7E00CC" fill="#BF6DFF" d="M392.398 338.924C392.865 340.666 394.655 341.7 396.397 341.234C398.139 340.767 399.173 338.976 398.707 337.234C398.24 335.492 396.449 334.458 394.707 334.925C392.965 335.392 391.931 337.182 392.398 338.924Z"/>&#xa;<path stroke="#7E00CC" fill="#BF6DFF" d="M357.31 302.981C357.667 304.313 359.037 305.104 360.369 304.747C361.701 304.39 362.492 303.021 362.135 301.689C361.778 300.356 360.408 299.566 359.076 299.923C357.744 300.28 356.953 301.649 357.31 302.981Z"/>&#xa;<path stroke="#7E00CC" fill="#BF6DFF" d="M358.731 332.035C359.417 334.597 362.051 336.117 364.613 335.431C367.175 334.744 368.695 332.111 368.009 329.549C367.322 326.987 364.689 325.467 362.127 326.153C359.565 326.84 358.045 329.473 358.731 332.035Z"/>&#xa;<path stroke="#7E00CC" fill="#BF6DFF" d="M401.569 307.828C402.255 310.39 404.889 311.911 407.451 311.224C410.013 310.538 411.533 307.904 410.846 305.342C410.16 302.78 407.527 301.26 404.965 301.947C402.403 302.633 400.882 305.266 401.569 307.828Z"/>&#xa;<path stroke="#7E00CC" fill="#BF6DFF" d="M382.429 316.658C383.336 320.04 386.812 322.047 390.193 321.14C393.575 320.234 395.582 316.758 394.676 313.376C393.77 309.995 390.294 307.988 386.912 308.894C383.53 309.8 381.523 313.276 382.429 316.658Z"/>&#xa;<path stroke="#7E00CC" d="M254.472 29.0546L237.42 7.73975"/>&#xa;<path stroke="#7E00CC" d="M220.389 28.3118L237.441 9.12842"/>&#xa;<path stroke="#7E00CC" d="M210.697 7.16528L219.223 28.4802"/>&#xa;<path stroke="#7E00CC" d="M212.344 6.80518L235.791 8.93666"/>&#xa;<path stroke="#7E00CC" d="M259.632 31.1907L240.449 54.6371"/>&#xa;<path stroke="#7E00CC" d="M236.314 13.7429L238.446 54.2413"/>&#xa;<path stroke="#7E00CC" d="M220.883 28.1218L259.25 32.3848"/>&#xa;<path stroke="#7E00CC" fill="#B556FF" d="M258.121 27.1384C255.496 27.1384 253.368 29.2661 253.368 31.8907C253.368 34.5154 255.496 36.6431 258.121 36.6431C260.745 36.6431 262.873 34.5154 262.873 31.8907C262.873 29.2661 260.745 27.1384 258.121 27.1384Z"/>&#xa;<path stroke="#7E00CC" fill="#BC78FF" d="M211.226 1.55979C208.602 1.55979 206.474 3.68748 206.474 6.31212C206.474 8.93676 208.602 11.0645 211.226 11.0645C213.851 11.0645 215.979 8.93676 215.979 6.31212C215.979 3.68748 213.851 1.55979 211.226 1.55979Z"/>&#xa;<path stroke="#7E00CC" fill="#E28FFF" d="M236.804 1.56001C233.002 1.56001 229.92 4.64199 229.92 8.44382C229.92 12.2456 233.002 15.3276 236.804 15.3276C240.606 15.3276 243.688 12.2456 243.688 8.44382C243.688 4.64199 240.606 1.56001 236.804 1.56001Z"/>&#xa;<path stroke="#7E00CC" fill="#C463FF" d="M241.067 46.3217C237.266 46.3217 234.184 49.4037 234.184 53.2055C234.184 57.0074 237.266 60.0894 241.067 60.0894C244.869 60.0894 247.951 57.0074 247.951 53.2055C247.951 49.4037 244.869 46.3217 241.067 46.3217Z"/>&#xa;<path stroke="#7E00CC" fill="#995AFF" d="M219.752 20.7433C214.773 20.7433 210.737 24.7796 210.737 29.7586C210.737 34.7376 214.773 38.7739 219.752 38.7739C224.731 38.7739 228.768 34.7376 228.768 29.7586C228.768 24.7796 224.731 20.7433 219.752 20.7433Z"/>&#xa;<path fill-opacity="0.67" fill="url(#paint0_linear_4963_712)" d="M224.853 347.214C224.853 347.214 322.746 297.428 322.746 222.749V135.624L224.853 98.2854L126.959 135.624V222.749C126.959 297.428 224.853 347.214 224.853 347.214Z" style="mix-blend-mode:multiply"/>&#xa;<path fill="#E7F8FF" d="M192.898 239.569L176.989 248.791C165.851 255.247 160.283 258.476 158.197 262.199C157.279 263.836 156.82 265.536 156.82 267.236V175.01C156.82 176.71 157.279 178.411 158.197 180.048C160.283 183.77 165.851 186.999 176.989 193.455L192.898 202.678C204.035 209.134 209.603 212.362 216.025 213.572C221.673 214.636 227.758 214.636 233.406 213.572C239.828 212.362 245.396 209.134 256.533 202.678L272.442 193.455C283.579 186.999 289.147 183.77 291.234 180.048C292.152 178.411 292.61 176.71 292.61 175.01V267.236C292.61 265.536 292.152 263.836 291.234 262.199C289.147 258.476 283.579 255.247 272.442 248.791L256.533 239.569C245.396 233.112 239.828 229.884 233.406 228.675C227.758 227.611 221.673 227.611 216.025 228.675C209.603 229.884 204.035 233.112 192.898 239.569Z"/>&#xa;<path fill-opacity="0.3" fill="#C1EDFF" d="M272.346 248.49L256.437 239.268C245.3 232.811 239.732 229.583 233.311 228.374C227.662 227.31 221.577 227.31 215.93 228.374C209.509 229.583 203.939 232.811 192.802 239.268L176.893 248.49C165.756 254.946 160.188 258.175 158.101 261.898C157.183 263.535 156.725 265.235 156.725 266.935H156.969C157.043 268.485 157.498 270.028 158.334 271.52C160.421 275.243 165.99 278.472 177.126 284.927L193.035 294.15C204.172 300.607 209.741 303.835 216.163 305.044C221.81 306.108 227.895 306.108 233.544 305.044C239.965 303.835 245.533 300.607 256.67 294.15L272.579 284.927C283.716 278.472 289.286 275.243 291.372 271.52C292.29 269.883 292.749 268.183 292.749 266.482H292.504C292.431 264.934 291.975 263.389 291.138 261.898C289.053 258.175 283.484 254.946 272.346 248.49Z" clip-rule="evenodd" fill-rule="evenodd"/>&#xa;<path stroke-linejoin="round" stroke-linecap="round" stroke="#80BFDC" d="M292.748 266.935C292.748 265.235 292.289 263.535 291.372 261.898C289.285 258.175 283.716 254.946 272.579 248.49L256.67 239.268C245.532 232.811 239.964 229.583 233.543 228.374C227.894 227.31 221.81 227.31 216.162 228.374C209.741 229.583 204.172 232.811 193.034 239.268L177.126 248.49C165.988 254.946 160.42 258.175 158.333 261.898C157.416 263.535 156.957 265.235 156.957 266.935"/>&#xa;<path fill="url(#paint1_linear_4963_712)" d="M252.144 269.211C237.071 276.872 212.633 276.872 197.558 269.211C190.022 265.38 186.254 260.361 186.254 255.34V227.6C186.254 222.581 190.022 217.56 197.558 213.731C212.633 206.07 237.071 206.07 252.144 213.731C259.681 217.56 263.45 222.581 263.45 227.6V255.34C263.45 260.361 259.681 265.38 252.144 269.211Z"/>&#xa;<path stroke-linejoin="round" stroke="#0076B1" d="M263.45 227.6V255.34C263.45 260.361 259.681 265.38 252.144 269.211C237.071 276.872 212.633 276.872 197.558 269.211C190.022 265.38 186.254 260.361 186.254 255.34V227.6M263.45 227.6C263.45 232.621 259.681 237.64 252.144 241.471C244.608 245.301 234.73 247.215 224.851 247.215C214.974 247.215 205.096 245.301 197.558 241.471C190.022 237.64 186.254 232.621 186.254 227.6M263.45 227.6C263.45 222.581 259.681 217.56 252.144 213.731C237.071 206.07 212.633 206.07 197.558 213.731C190.022 217.56 186.254 222.581 186.254 227.6"/>&#xa;<path fill="#A6E7FF" d="M252.144 241.418C237.071 249.078 212.633 249.078 197.558 241.418C190.022 237.588 186.254 232.569 186.254 227.548V199.808C186.254 194.788 190.022 189.768 197.558 185.937C212.633 178.277 237.071 178.277 252.144 185.937C259.681 189.768 263.45 194.788 263.45 199.808V227.548C263.45 232.569 259.681 237.588 252.144 241.418Z"/>&#xa;<path stroke-linejoin="round" stroke="#0076B1" d="M263.45 199.808V227.548C263.45 232.569 259.681 237.588 252.144 241.418C237.071 249.078 212.633 249.078 197.558 241.418C190.022 237.588 186.254 232.569 186.254 227.548V199.808M263.45 199.808C263.45 204.828 259.681 209.848 252.144 213.678C244.608 217.508 234.73 219.423 224.851 219.423C214.974 219.423 205.096 217.508 197.558 213.678C190.022 209.848 186.254 204.828 186.254 199.808M263.45 199.808C263.45 194.788 259.681 189.768 252.144 185.937C237.071 178.277 212.633 178.277 197.558 185.937C190.022 189.768 186.254 194.788 186.254 199.808"/>&#xa;<path stroke-linejoin="round" stroke="#0076B1" fill="url(#paint2_radial_4963_712)" d="M186.254 199.808C186.254 204.828 190.022 209.848 197.558 213.678C205.096 217.508 214.974 219.423 224.851 219.423C234.73 219.423 244.608 217.508 252.144 213.678C259.681 209.848 263.45 204.828 263.45 199.808C263.45 194.788 259.681 189.768 252.144 185.937C237.071 178.277 212.633 178.277 197.558 185.937C190.022 189.768 186.254 194.788 186.254 199.808Z"/>&#xa;<path fill="#E0F6FF" d="M256.67 294.602L272.579 285.379C283.716 278.924 289.285 275.695 291.372 271.972C292.289 270.335 292.748 268.635 292.748 266.934V174.709C292.748 176.41 292.289 178.11 291.372 179.747C289.285 183.471 283.716 186.699 272.579 193.154L256.67 202.377C245.532 208.834 239.964 212.062 233.543 213.271C227.894 214.335 221.81 214.335 216.162 213.271C209.741 212.062 204.172 208.834 193.034 202.377L177.126 193.154C165.988 186.699 160.42 183.471 158.333 179.747C157.416 178.11 156.957 176.41 156.957 174.709V266.934C156.957 268.635 157.416 270.335 158.333 271.972C160.42 275.696 165.988 278.924 177.126 285.379L193.034 294.602C204.172 301.059 209.741 304.287 216.162 305.496C221.81 306.56 227.894 306.56 233.543 305.496C239.964 304.287 245.532 301.059 256.67 294.602Z" opacity="0.3"/>&#xa;<path fill-opacity="0.3" fill="#E9F9FF" d="M272.461 156.491L256.553 147.269C245.415 140.813 239.846 137.584 233.425 136.374C227.777 135.31 221.693 135.31 216.044 136.374C209.623 137.584 204.055 140.813 192.917 147.269L177.008 156.491C165.871 162.948 160.302 166.176 158.216 169.898C157.299 171.535 156.84 173.236 156.84 174.936H157.083C157.158 176.485 157.612 178.03 158.449 179.522C160.536 183.244 166.104 186.472 177.241 192.929L193.15 202.152C204.287 208.608 209.855 211.835 216.277 213.046C221.925 214.109 228.01 214.109 233.658 213.046C240.08 211.835 245.648 208.608 256.785 202.152L272.694 192.929C283.832 186.473 289.4 183.244 291.486 179.522C292.404 177.885 292.863 176.185 292.863 174.484H292.62C292.545 172.935 292.089 171.39 291.253 169.898C289.167 166.176 283.599 162.948 272.461 156.491Z" clip-rule="evenodd" fill-rule="evenodd"/>&#xa;<path stroke-linejoin="round" stroke-linecap="round" stroke="#0076B1" d="M292.748 266.936C292.748 268.636 292.289 270.336 291.372 271.973C289.285 275.696 283.716 278.924 272.579 285.381L256.67 294.603C245.532 301.059 239.964 304.288 233.543 305.497C227.894 306.561 221.81 306.561 216.162 305.497C209.741 304.288 204.172 301.059 193.034 294.603L177.126 285.381C165.988 278.924 160.42 275.696 158.333 271.973C157.416 270.336 156.957 268.636 156.957 266.936"/>&#xa;<path stroke-linejoin="round" stroke-linecap="round" stroke="#0076B1" d="M156.957 174.71V266.935M292.748 174.71V266.935"/>&#xa;<path stroke-linejoin="round" stroke-linecap="round" stroke="#0076B1" d="M177.126 193.155C165.988 186.698 160.42 183.471 158.333 179.748C157.416 178.111 156.957 176.411 156.957 174.71C156.957 173.01 157.416 171.309 158.333 169.672C160.42 165.95 165.988 162.721 177.126 156.265L193.034 147.043C204.172 140.586 209.741 137.358 216.162 136.149C221.81 135.085 227.894 135.085 233.543 136.149C239.964 137.358 245.532 140.586 256.67 147.043L272.579 156.265C283.716 162.721 289.285 165.95 291.372 169.672C292.289 171.309 292.748 173.01 292.748 174.71C292.748 176.411 292.289 178.111 291.372 179.748C289.285 183.471 283.716 186.698 272.579 193.155L256.67 202.378C245.532 208.834 239.964 212.063 233.543 213.272C227.894 214.336 221.81 214.336 216.162 213.272C209.741 212.063 204.172 208.834 193.034 202.378L177.126 193.155Z"/>&#xa;<path fill="white" d="M241.982 293.199H207.447C203.966 293.199 201.145 296.021 201.145 299.502V313.361C201.145 316.842 203.966 319.664 207.447 319.664H241.982C245.463 319.664 248.285 316.842 248.285 313.361V299.502C248.285 296.021 245.463 293.199 241.982 293.199Z"/>&#xa;<path stroke="#0076B1" d="M241.982 293.199H207.447C203.966 293.199 201.145 296.021 201.145 299.502V313.361C201.145 316.842 203.966 319.664 207.447 319.664H241.982C245.463 319.664 248.285 316.842 248.285 313.361V299.502C248.285 296.021 245.463 293.199 241.982 293.199Z"/>&#xa;<path fill="black" d="M216.424 312.361C215.834 312.361 215.327 312.25 214.903 312.029C214.478 311.798 214.128 311.471 213.851 311.047C213.575 310.623 213.372 310.102 213.243 309.484C213.113 308.866 213.049 308.16 213.049 307.367C213.049 306.583 213.113 305.882 213.243 305.264C213.372 304.637 213.575 304.112 213.851 303.687C214.128 303.263 214.478 302.94 214.903 302.719C215.327 302.488 215.834 302.373 216.424 302.373C217.015 302.373 217.522 302.488 217.946 302.719C218.37 302.94 218.721 303.263 218.997 303.687C219.274 304.112 219.477 304.637 219.606 305.264C219.735 305.882 219.8 306.583 219.8 307.367C219.8 308.16 219.735 308.866 219.606 309.484C219.477 310.102 219.274 310.623 218.997 311.047C218.721 311.471 218.37 311.798 217.946 312.029C217.522 312.25 217.015 312.361 216.424 312.361ZM216.424 311.351C216.812 311.351 217.139 311.277 217.406 311.13C217.674 310.973 217.895 310.756 218.07 310.48C218.246 310.203 218.37 309.871 218.444 309.484C218.527 309.087 218.568 308.644 218.568 308.156V306.579C218.568 306.099 218.527 305.661 218.444 305.264C218.37 304.868 218.246 304.531 218.07 304.254C217.895 303.978 217.674 303.766 217.406 303.618C217.139 303.461 216.812 303.383 216.424 303.383C216.037 303.383 215.71 303.461 215.442 303.618C215.175 303.766 214.953 303.978 214.778 304.254C214.603 304.531 214.474 304.868 214.391 305.264C214.317 305.661 214.28 306.099 214.28 306.579V308.156C214.28 308.644 214.317 309.087 214.391 309.484C214.474 309.871 214.603 310.203 214.778 310.48C214.953 310.756 215.175 310.973 215.442 311.13C215.71 311.277 216.037 311.351 216.424 311.351ZM221.634 311.254H223.723V305.998H221.634V305.057H224.829V306.855H224.899C225.046 306.293 225.323 305.855 225.729 305.541C226.144 305.218 226.669 305.057 227.306 305.057H228.302V306.164H226.96C226.323 306.164 225.807 306.348 225.41 306.717C225.023 307.086 224.829 307.57 224.829 308.169V311.254H227.596V312.195H221.634V311.254ZM236.624 313.011C236.624 313.731 236.324 314.261 235.725 314.602C235.125 314.953 234.226 315.128 233.027 315.128C231.874 315.128 231.044 314.976 230.537 314.671C230.039 314.367 229.79 313.929 229.79 313.357C229.79 312.97 229.891 312.67 230.094 312.458C230.297 312.246 230.583 312.089 230.952 311.988V311.822C230.749 311.72 230.592 311.591 230.482 311.434C230.371 311.277 230.316 311.079 230.316 310.839C230.316 310.47 230.436 310.194 230.675 310.009C230.924 309.825 231.233 309.687 231.602 309.594V309.539C231.16 309.345 230.814 309.059 230.565 308.681C230.325 308.303 230.205 307.86 230.205 307.353C230.205 306.994 230.27 306.662 230.399 306.357C230.528 306.053 230.712 305.795 230.952 305.583C231.201 305.361 231.496 305.191 231.837 305.071C232.179 304.951 232.557 304.891 232.972 304.891C233.507 304.891 233.977 304.988 234.383 305.181V305.057C234.383 304.78 234.447 304.55 234.576 304.365C234.706 304.181 234.927 304.088 235.241 304.088H236.555V305.057H234.95V305.541C235.208 305.762 235.407 306.025 235.545 306.33C235.683 306.634 235.752 306.975 235.752 307.353C235.752 307.713 235.683 308.045 235.545 308.349C235.416 308.654 235.231 308.916 234.992 309.138C234.752 309.35 234.457 309.516 234.106 309.636C233.765 309.756 233.387 309.816 232.972 309.816C232.852 309.816 232.737 309.811 232.626 309.802C232.515 309.793 232.405 309.779 232.294 309.76C232.183 309.779 232.068 309.811 231.948 309.857C231.828 309.894 231.717 309.949 231.616 310.023C231.515 310.088 231.432 310.166 231.367 310.258C231.302 310.351 231.27 310.457 231.27 310.577C231.27 310.789 231.376 310.932 231.588 311.005C231.801 311.07 232.077 311.102 232.418 311.102H233.995C234.918 311.102 235.586 311.277 236.001 311.628C236.416 311.969 236.624 312.43 236.624 313.011ZM235.586 313.067C235.586 312.781 235.471 312.55 235.241 312.375C235.01 312.209 234.609 312.126 234.037 312.126H231.561C231.081 312.32 230.841 312.642 230.841 313.094C230.841 313.408 230.966 313.675 231.215 313.897C231.464 314.127 231.879 314.242 232.46 314.242H233.539C234.185 314.242 234.687 314.141 235.047 313.938C235.407 313.744 235.586 313.454 235.586 313.067ZM232.972 308.958C233.525 308.958 233.931 308.829 234.189 308.571C234.457 308.312 234.59 307.971 234.59 307.547V307.146C234.59 306.721 234.457 306.385 234.189 306.136C233.931 305.878 233.525 305.748 232.972 305.748C232.418 305.748 232.013 305.878 231.754 306.136C231.496 306.385 231.367 306.721 231.367 307.146V307.547C231.367 307.971 231.496 308.312 231.754 308.571C232.013 308.829 232.418 308.958 232.972 308.958Z"/>&#xa;<path fill="url(#paint3_linear_4963_712)" d="M91.5264 318.414C92.5763 318.252 93.5369 318.806 93.2556 319.413L91.3568 323.504C91.0755 324.11 89.7632 324.313 88.9946 323.87L83.8069 320.875C83.0385 320.431 83.3901 319.673 84.4399 319.511L91.5264 318.414ZM102.508 312.074C103.558 311.911 104.519 312.466 104.238 313.072L102.339 317.164C102.057 317.77 100.745 317.973 99.9767 317.529L94.789 314.534C94.0204 314.09 94.3721 313.333 95.422 313.17L102.508 312.074ZM115.22 306.732C115.501 306.125 114.54 305.571 113.49 305.733L106.404 306.83C105.354 306.992 105.002 307.75 105.771 308.194L110.959 311.189C111.727 311.632 113.04 311.43 113.321 310.823L115.22 306.732ZM124.472 299.393C125.522 299.23 126.483 299.785 126.201 300.391L124.303 304.483C124.021 305.089 122.709 305.292 121.941 304.848L116.753 301.853C115.985 301.409 116.337 300.652 117.386 300.489L124.472 299.393ZM137.184 294.051C137.466 293.444 136.504 292.89 135.455 293.052L128.367 294.149C127.318 294.311 126.967 295.069 127.735 295.513L132.922 298.508C133.691 298.951 135.003 298.749 135.284 298.142L137.184 294.051ZM146.437 286.712C147.487 286.549 148.447 287.104 148.166 287.71L146.267 291.802C145.986 292.408 144.673 292.611 143.905 292.167L138.717 289.172C137.949 288.728 138.3 287.971 139.35 287.808L146.437 286.712ZM159.148 281.37C159.429 280.763 158.469 280.209 157.418 280.372L150.332 281.468C149.282 281.63 148.93 282.388 149.699 282.832L154.887 285.827C155.656 286.27 156.968 286.068 157.249 285.461L159.148 281.37ZM168.4 274.031C169.45 273.868 170.411 274.423 170.129 275.029L168.231 279.121C167.949 279.727 166.637 279.93 165.869 279.486L160.681 276.491C159.913 276.047 160.265 275.29 161.314 275.127L168.4 274.031ZM181.112 268.689C181.394 268.083 180.432 267.528 179.383 267.691L172.297 268.787C171.246 268.949 170.895 269.707 171.664 270.151L176.851 273.146C177.619 273.59 178.932 273.387 179.214 272.78L181.112 268.689Z" clip-rule="evenodd" fill-rule="evenodd"/>&#xa;<path fill="url(#paint4_linear_4963_712)" d="M345.28 314.207C344.23 314.044 343.27 314.599 343.551 315.205L345.45 319.296C345.731 319.903 347.044 320.106 347.812 319.662L352.999 316.667C353.768 316.223 353.417 315.466 352.366 315.303L345.28 314.207ZM334.298 307.866C333.248 307.704 332.288 308.258 332.569 308.865L334.468 312.956C334.749 313.562 336.061 313.765 336.83 313.321L342.018 310.326C342.787 309.883 342.435 309.125 341.385 308.963L334.298 307.866ZM321.587 302.524C321.306 301.918 322.266 301.363 323.317 301.526L330.403 302.622C331.452 302.785 331.804 303.542 331.036 303.986L325.848 306.981C325.079 307.425 323.767 307.222 323.486 306.615L321.587 302.524ZM312.334 295.185C311.285 295.023 310.323 295.577 310.605 296.184L312.503 300.275C312.785 300.881 314.098 301.084 314.865 300.64L320.053 297.645C320.822 297.202 320.47 296.444 319.42 296.282L312.334 295.185ZM299.623 289.843C299.342 289.237 300.302 288.682 301.352 288.845L308.438 289.941C309.489 290.104 309.84 290.861 309.071 291.305L303.884 294.3C303.116 294.744 301.803 294.541 301.522 293.934L299.623 289.843ZM290.37 282.504C289.32 282.342 288.36 282.896 288.641 283.503L290.54 287.594C290.821 288.2 292.133 288.403 292.902 287.959L298.09 284.964C298.859 284.521 298.507 283.763 297.457 283.601L290.37 282.504ZM277.658 277.162C277.377 276.556 278.338 276.001 279.387 276.164L286.475 277.26C287.524 277.423 287.876 278.18 287.108 278.624L281.92 281.619C281.151 282.063 279.839 281.86 279.558 281.254L277.658 277.162ZM268.406 269.823C267.357 269.661 266.395 270.215 266.677 270.822L268.575 274.913C268.857 275.519 270.17 275.722 270.937 275.278L276.125 272.283C276.894 271.84 276.542 271.082 275.492 270.92L268.406 269.823Z" clip-rule="evenodd" fill-rule="evenodd"/>&#xa;<path fill="url(#paint5_linear_4963_712)" d="M226.055 66.8655C226.44 67.8559 227.4 68.4107 227.784 67.864L230.378 64.1738C230.763 63.6272 230.282 62.3892 229.513 61.9454L224.326 58.9503C223.558 58.5066 223.077 59.19 223.461 60.1804L226.055 66.8655ZM226.055 79.5465C226.44 80.5369 227.4 81.0916 227.784 80.545L230.378 76.8548C230.763 76.3081 230.282 75.0701 229.513 74.6264L224.326 71.6313C223.558 71.1876 223.077 71.8709 223.461 72.8613L226.055 79.5465ZM227.784 93.2259C227.4 93.7726 226.44 93.2178 226.055 92.2275L223.461 85.5423C223.077 84.5519 223.558 83.8685 224.326 84.3122L229.513 87.3074C230.282 87.7511 230.763 88.9891 230.378 89.5358L227.784 93.2259ZM226.055 104.908C226.44 105.899 227.4 106.454 227.784 105.907L230.378 102.217C230.763 101.67 230.282 100.432 229.513 99.9883L224.326 96.9932C223.558 96.5495 223.077 97.2329 223.461 98.2233L226.055 104.908ZM227.784 118.588C227.4 119.134 226.44 118.58 226.055 117.589L223.461 110.904C223.077 109.914 223.558 109.23 224.326 109.674L229.513 112.669C230.282 113.113 230.763 114.351 230.378 114.898L227.784 118.588ZM226.055 130.27C226.44 131.261 227.4 131.815 227.784 131.269L230.378 127.579C230.763 127.032 230.282 125.794 229.513 125.35L224.326 122.355C223.558 121.911 223.077 122.595 223.461 123.585L226.055 130.27ZM227.784 143.95C227.4 144.496 226.44 143.942 226.055 142.951L223.461 136.266C223.077 135.276 223.558 134.592 224.326 135.036L229.513 138.031C230.282 138.475 230.763 139.713 230.378 140.259L227.784 143.95ZM226.055 155.632C226.44 156.623 227.4 157.177 227.784 156.631L230.378 152.94C230.763 152.394 230.282 151.156 229.513 150.712L224.326 147.717C223.558 147.273 223.077 147.957 223.461 148.947L226.055 155.632ZM227.784 169.312C227.4 169.858 226.44 169.304 226.055 168.313L223.461 161.628C223.077 160.638 223.558 159.954 224.326 160.398L229.513 163.393C230.282 163.837 230.763 165.075 230.378 165.621L227.784 169.312Z" clip-rule="evenodd" fill-rule="evenodd"/>&#xa;<defs>&#xa;<linearGradient gradientUnits="userSpaceOnUse" y2="324.078" x2="188.485" y1="33.7278" x1="373.192" id="paint0_linear_4963_712">&#xa;<stop stop-color="#D7F5FF" offset="0.00216627"/>&#xa;<stop stop-color="#BFF0FF" offset="1"/>&#xa;</linearGradient>&#xa;<linearGradient gradientUnits="userSpaceOnUse" y2="274.957" x2="224.851" y1="207.985" x1="224.851" id="paint1_linear_4963_712">&#xa;<stop stop-color="#B6EBFF"/>&#xa;<stop stop-color="#9FE4FF" offset="1"/>&#xa;</linearGradient>&#xa;<radialGradient gradientTransform="translate(224.851 149.153) rotate(90) scale(70.2706 80.9992)" gradientUnits="userSpaceOnUse" r="1" cy="0" cx="0" id="paint2_radial_4963_712">&#xa;<stop stop-color="#F6FDFF"/>&#xa;<stop stop-color="#EEFAFF" offset="0.657602"/>&#xa;<stop stop-color="#EAF9FF" offset="0.958406"/>&#xa;</radialGradient>&#xa;<linearGradient gradientUnits="userSpaceOnUse" y2="242.741" x2="137.168" y1="324.447" x1="89.9951" id="paint3_linear_4963_712">&#xa;<stop stop-color="#FF2EF7"/>&#xa;<stop stop-color="#FFC24F" offset="0.510417"/>&#xa;<stop stop-color="#FFAF81" offset="0.692708"/>&#xa;</linearGradient>&#xa;<linearGradient gradientUnits="userSpaceOnUse" y2="243.894" x2="312.319" y1="316.089" x1="354" id="paint4_linear_4963_712">&#xa;<stop stop-color="#FFA674" offset="0.197917"/>&#xa;<stop stop-color="#FFC24D" offset="0.552083"/>&#xa;<stop stop-color="#FF39EC" offset="0.90625"/>&#xa;</linearGradient>&#xa;<linearGradient gradientUnits="userSpaceOnUse" y2="144.229" x2="183.342" y1="62.523" x1="230.514" id="paint5_linear_4963_712">&#xa;<stop stop-opacity="0.58" stop-color="#FFA674" offset="0.197917"/>&#xa;<stop stop-color="#FFC24D" offset="0.552083"/>&#xa;<stop stop-color="#FF3CE8" offset="0.90625"/>&#xa;</linearGradient>&#xa;</defs>&#xa;</svg></g></g></g></g></g></svg>