<svg xmlns="http://www.w3.org/2000/svg" width="64" height="64" viewBox="0 0 64 64" fill="none">
  <path fill-rule="evenodd" clip-rule="evenodd" d="M59.712 19.1354C59.7116 18.0873 59.4874 17.1611 59.0341 16.3661C58.5888 15.5844 57.9219 14.9293 57.0273 14.4113C49.6434 10.1537 42.2524 5.9091 34.8709 1.64716C32.8809 0.498291 30.9514 0.540175 28.9761 1.70554C26.0371 3.43883 11.3225 11.8692 6.93772 14.4089C5.13194 15.4542 4.25326 17.0541 4.25282 19.1335C4.25 27.6958 4.25282 36.2578 4.25 44.8203C4.25043 45.8455 4.46506 46.7537 4.89844 47.5367C5.34397 48.342 6.02018 49.0152 6.93533 49.5449C11.3203 52.0847 26.0369 60.5144 28.9753 62.2481C30.9514 63.4141 32.8809 63.4558 34.8715 62.3064C42.2533 58.0443 49.6447 53.7999 57.0297 49.5423C57.9449 49.0128 58.6211 48.3392 59.0666 47.5345C59.4993 46.7515 59.7144 45.8433 59.7148 44.818C59.7148 44.818 59.7148 27.6979 59.712 19.1354Z" fill="#5C8DBC"/>
  <path fill-rule="evenodd" clip-rule="evenodd" d="M32.0673 31.8936L4.89844 47.5368C5.34397 48.3421 6.02018 49.0153 6.93533 49.545C11.3203 52.0847 26.0369 60.5144 28.9753 62.2482C30.9514 63.4142 32.8809 63.4558 34.8715 62.3065C42.2533 58.0444 49.6447 53.8 57.0297 49.5424C57.9449 49.0129 58.6211 48.3393 59.0666 47.5346L32.0673 31.8936Z" fill="#1A4674"/>
  <path fill-rule="evenodd" clip-rule="evenodd" d="M24.02 36.5272C25.601 39.2872 28.573 41.1488 31.9823 41.1488C35.4126 41.1488 38.4015 39.2636 39.9744 36.4741L32.0671 31.8936L24.02 36.5272Z" fill="#1A4674"/>
  <path fill-rule="evenodd" clip-rule="evenodd" d="M59.7121 19.1355C59.7117 18.0873 59.4875 17.1611 59.0342 16.3662L32.0674 31.8936L59.0667 47.5346C59.4995 46.7516 59.7145 45.8434 59.715 44.818C59.715 44.818 59.715 27.698 59.7121 19.1355Z" fill="#1B598E"/>
  <path fill-rule="evenodd" clip-rule="evenodd" d="M58.2276 33.0114H56.1178V35.1216H54.0075V33.0114H51.8979V30.9018H54.0075V28.792H56.1178V30.9018H58.2276V33.0114Z" fill="white"/>
  <path fill-rule="evenodd" clip-rule="evenodd" d="M50.5289 33.0114H48.4193V35.1216H46.3095V33.0114H44.1997V30.9018H46.3095V28.792H48.4193V30.9018H50.5289V33.0114Z" fill="white"/>
  <path fill-rule="evenodd" clip-rule="evenodd" d="M39.9747 36.4739C38.4018 39.2634 35.4129 41.1486 31.9825 41.1486C28.5732 41.1486 25.6012 39.287 24.0203 36.527C23.2523 35.1859 22.8107 33.6332 22.8107 31.9767C22.8107 26.9114 26.9172 22.805 31.9825 22.805C35.3699 22.805 38.3263 24.6434 39.915 27.3751L47.9317 22.7588C44.7453 17.2584 38.7963 13.5579 31.9825 13.5579C21.8098 13.5579 13.5635 21.8044 13.5635 31.9767C13.5635 35.3139 14.4513 38.4435 16.0029 41.1429C19.1813 46.6724 25.1472 50.3958 31.9825 50.3958C38.8304 50.3958 44.8057 46.6575 47.9795 41.1117L39.9747 36.4739Z" fill="white"/>
</svg>