<svg xmlns="http://www.w3.org/2000/svg" width="65" height="64" viewBox="0 0 65 64" fill="none">
  <g clip-path="url(#clip0_2_1080)">
    <path d="M32.1928 0.25C15.9848 0.250001 16.9969 7.2788 16.9969 7.2788L17.015 14.5606H32.4819V16.7469H10.8715C10.8715 16.7469 0.5 15.5707 0.5 31.9248C0.499999 48.2789 9.55251 47.6989 9.55251 47.6989H14.9551V40.11C14.9551 40.11 14.6639 31.0575 23.8631 31.0575H39.2036C39.2036 31.0575 47.8224 31.1968 47.8224 22.7277V8.72431C47.8224 8.72431 49.131 0.25 32.1928 0.25ZM23.6643 5.14667C25.2032 5.14667 26.4469 6.39043 26.4469 7.92928C26.4469 9.46813 25.2032 10.7119 23.6643 10.7119C22.1255 10.7119 20.8817 9.46813 20.8817 7.92928C20.8817 6.39043 22.1255 5.14667 23.6643 5.14667Z" fill="url(#paint0_linear_2_1080)"/>
    <path d="M32.653 63.7635C48.8611 63.7635 47.849 56.7347 47.849 56.7347L47.8309 49.4529H32.3639V47.2666H53.9743C53.9743 47.2666 64.3459 48.4428 64.3459 32.0887C64.3459 15.7346 55.2933 16.3146 55.2933 16.3146H49.8907V23.9035C49.8907 23.9035 50.182 32.956 40.9828 32.956H25.6423C25.6423 32.956 17.0234 32.8167 17.0234 41.2858V55.2892C17.0234 55.2892 15.7149 63.7635 32.653 63.7635ZM41.1815 58.8668C39.6427 58.8668 38.3989 57.623 38.3989 56.0842C38.3989 54.5453 39.6427 53.3016 41.1815 53.3016C42.7204 53.3016 43.9642 54.5453 43.9642 56.0842C43.9642 57.623 42.7204 58.8668 41.1815 58.8668Z" fill="url(#paint1_linear_2_1080)"/>
  </g>
  <defs>
    <linearGradient id="paint0_linear_2_1080" x1="6.63572" y1="5.96287" x2="38.2755" y2="37.287" gradientUnits="userSpaceOnUse">
      <stop stop-color="#387EB8"/>
      <stop offset="1" stop-color="#366994"/>
    </linearGradient>
    <linearGradient id="paint1_linear_2_1080" x1="26.0561" y1="26.0771" x2="60.0338" y2="58.1973" gradientUnits="userSpaceOnUse">
      <stop stop-color="#FFE052"/>
      <stop offset="1" stop-color="#FFC331"/>
    </linearGradient>
    <clipPath id="clip0_2_1080">
      <rect width="64" height="64" fill="white" transform="translate(0.5)"/>
    </clipPath>
  </defs>
</svg>